<?xml version="1.0" encoding="UTF-8" standalone="no"?>
<svg width="500px" height="250px" viewBox="0 0 500 250" version="1.1" xmlns="http://www.w3.org/2000/svg" xmlns:xlink="http://www.w3.org/1999/xlink" xmlns:sketch="http://www.bohemiancoding.com/sketch/ns">
    <!-- Generator: Sketch 3.4.2 (15855) - http://www.bohemiancoding.com/sketch -->
    <title>bitmapist</title>
    <desc>Created with Sketch.</desc>
    <defs></defs>
    <g id="Page-1" stroke="none" stroke-width="1" fill="none" fill-rule="evenodd" sketch:type="MSPage">
        <g id="bitmapist" sketch:type="MSArtboardGroup">
            <g id="Group" sketch:type="MSLayerGroup" transform="translate(22.000000, 54.000000)">
                <path d="M97.652,141.827 C87.64,147.048 82.078,146.997 74.169,143.216 C66.26,139.435 16.214,119.22 7.199,114.911 C2.693,112.757 0.324,110.94 0.324,109.223 L0.324,92.028 C-0.282934453,90.8971475 32.0889694,86.2377451 32.0626679,85.233574 C31.5680933,66.3511273 95.9612872,72.5901066 99.1139963,64.0570957 C111.193994,31.3618005 92.2064755,53.5786001 99.1139964,50.6095793 C117.354367,42.7694234 68.9019117,76.615538 75.996,74.071 C86.514,70.297 90.163,70.161 99.114,73.44 C108.066,76.719 161.588,86.376 170.435,89.616 C170.435,89.616 170.431,104.973 170.431,106.567 C170.432,108.267 168.391,110.132 163.77,112.54 C154.692,117.272 107.664,136.608 97.652,141.827 Z" id="Shape" fill="#103DA4" sketch:type="MSShapeGroup"></path>
                <path d="M163.77,95.34 C154.692,100.07 107.664,119.408 97.652,124.627 C87.64,129.848 82.078,129.797 74.169,126.016 C66.259,122.237 16.214,102.018 7.199,97.711 C-1.816,93.402 -2.005,90.436 6.851,86.969 C15.706,83.5 65.477,63.973 75.997,60.199 C86.515,56.427 90.164,56.289 99.115,59.569 C108.067,62.848 154.814,81.455 163.66,84.695 C172.508,87.938 172.848,90.608 163.77,95.34 L163.77,95.34 Z" id="Shape" fill="#1F60D8" sketch:type="MSShapeGroup"></path>
                <path d="M97.652,113.789 C87.64,119.008 82.078,118.957 74.169,115.176 C66.259,111.397 16.214,91.18 7.199,86.871 C2.693,84.717 0.324,82.902 0.324,81.185 L0.324,63.988 C-1.69950623,60.5491361 43.1396935,61.2140618 44.2909249,59.305977 C52.6896637,45.3856603 90.0615058,64.6845109 94.3413607,61.5750006 C105.619348,53.3810272 48.2479762,50.8406361 54.359251,48.2508095 C72.5100429,40.5588948 68.8980632,48.5775932 75.996,46.031 C86.514,42.258 90.163,42.121 99.114,45.4 C108.066,48.679 161.588,58.334 170.435,61.575 C170.435,61.575 170.431,76.932 170.431,78.528 C170.432,80.227 168.391,82.092 163.77,84.5 C154.692,89.232 107.664,108.568 97.652,113.789 Z" id="Shape" fill="#103DA4" sketch:type="MSShapeGroup"></path>
                <path d="M163.77,67.3 C154.692,72.032 107.664,91.368 97.652,96.589 C87.64,101.808 82.078,101.757 74.169,97.976 C66.259,94.197 16.214,73.979 7.199,69.671 C-1.816,65.363 -2.005,62.397 6.851,58.928 C15.706,55.461 65.477,35.933 75.997,32.16 C86.515,28.387 90.164,28.25 99.115,31.529 C108.067,34.808 154.814,53.414 163.66,56.655 C172.508,59.897 172.848,62.568 163.77,67.3 L163.77,67.3 Z" id="Shape" fill="#1F60D8" sketch:type="MSShapeGroup"></path>
                <path d="M97.652,84.71 C87.64,89.929 82.078,89.878 74.169,86.097 C66.259,82.318 16.214,62.1 7.199,57.792 C2.693,55.638 0.324,53.822 0.324,52.106 L0.324,34.909 C-1.00315638,32.8789446 25.5915524,36.0927654 25.305336,34.9090009 C21.8834644,20.7564566 60.0689513,58.1580079 64.9301738,57.791999 C76.0619021,56.953874 41.5340083,36.2428953 46.1418437,32.4969981 C61.0681258,20.362815 68.7654239,19.546494 75.996,16.953 C86.514,13.179 90.163,13.043 99.114,16.322 C108.066,19.601 161.588,29.256 170.435,32.497 C170.435,32.497 170.431,47.854 170.431,49.449 C170.432,51.147 168.391,53.012 163.77,55.42 C154.692,60.152 107.664,79.489 97.652,84.71 Z" id="Shape" fill="#103DA4" sketch:type="MSShapeGroup"></path>
                <path d="M163.77,38.22 C154.692,42.952 107.664,62.289 97.652,67.509 C87.64,72.728 82.078,72.677 74.169,68.897 C66.26,65.117 16.214,44.9 7.199,40.592 C-1.816,36.284 -2.005,33.317 6.851,29.849 C15.706,26.381 65.477,6.855 75.997,3.081 C86.515,-0.693 90.164,-0.829 99.115,2.451 C108.067,5.73 154.814,24.336 163.66,27.577 C172.508,30.817 172.848,33.489 163.77,38.22 L163.77,38.22 Z" id="Shape" fill="#1F60D8" sketch:type="MSShapeGroup"></path>
            </g>
            <g id="Group" sketch:type="MSLayerGroup" transform="translate(108.582174, 82.085704) rotate(24.000000) translate(-108.582174, -82.085704) translate(53.082174, 50.418035)" fill="#FFFFFF">
                <path d="M68.3884692,28.3982768 C68.2847228,27.8001732 67.1606569,27.7825832 65.9522754,28.3601651 L44.4825973,38.5916163 C43.266983,39.1691982 42.1366341,39.1516082 42.034226,38.5535047 L41.3993674,34.7939964 C41.2997751,34.1958928 40.3602001,34.1812344 39.3033773,34.5908613 L16.4562106,43.6099812 C15.6624728,43.9385621 15.0713786,44.3555182 14.5886301,44.8593834 L0.989178514,59.0515871 C0.184353976,59.8913624 0.221512309,60.6588869 1.26860596,60.6750111 L62.0285501,61.6102128 C62.9813465,61.6248711 64.4614179,60.9662433 65.3173999,60.0424904 L97.1325371,25.6956779 C98.454428,24.2680598 97.2066071,23.5669228 95.1501129,24.5570633 L72.0931597,35.5281882 C70.885617,36.1057701 69.7567805,36.0881801 69.648065,35.4900765 L68.3884692,28.3982768 Z" id="Shape" sketch:type="MSShapeGroup" transform="translate(49.053341, 42.852452) rotate(-1.000000) translate(-49.053341, -42.852452) "></path>
                <path d="M101.939225,6.66604731 C100.469914,7.91645613 99.6484791,9.0878721 99.2971691,10.0855949 C99.3103842,10.1771537 99.1581086,10.2655711 99.005826,10.3539884 L87.2589693,17.162124 C87.1061387,17.2505414 86.9401059,17.2473999 86.8570897,17.2458291 C86.5553892,16.8748815 86.1141367,16.6839101 85.4501936,16.6713441 C84.8692498,16.6603489 84.0654066,16.8277591 83.3574868,17.0882989 C83.2044969,17.1767162 83.1084652,17.0835866 83.1084652,17.0835866 L82.5933874,13.421233 C82.5806545,13.3296741 82.6507829,13.239686 82.7209113,13.1496979 C84.5627179,11.5409075 85.7866788,9.64644526 84.9121927,8.07737897 C84.6847317,7.61644326 84.1517895,7.33234225 83.4908208,7.31977626 C81.3549778,7.37049566 78.2938223,9.13884257 76.462362,11.478533 C76.0397056,12.0184616 75.7703074,12.4699728 75.583778,12.9230548 C75.5961845,13.0146136 75.3724761,13.193019 75.2191911,13.2814364 L62.3181723,20.7084934 C62.1642901,20.7969108 61.9980127,20.7937693 61.9148742,20.7921985 C61.6283803,20.5128098 61.188098,20.3218383 60.6062658,20.3108431 C60.0244396,20.2998479 59.3008668,20.4688288 58.5894334,20.7293686 C58.4353985,20.817786 58.2691248,20.8146445 58.327812,20.6330975 L57.5605313,17.3306962 C57.5485845,17.2391374 57.6196357,17.1491493 57.6906868,17.0591612 C59.1830217,15.8087524 60.1655452,14.4573602 60.3198182,13.0902606 C60.3447153,11.994696 59.7548759,11.2528008 58.3595422,11.3176569 C56.2192731,11.3683763 53.1482574,13.228282 51.364165,15.4779844 C51.0073373,15.9279248 50.804825,16.289448 50.530979,16.7409592 C50.459619,16.8309473 50.3882589,16.9209354 50.2339185,17.0093527 L47.5028158,18.3277592 C47.348346,18.4161765 47.2653123,18.4146058 47.2537252,18.3230469 C46.9237993,17.6774228 46.0593339,17.3870388 44.765732,17.6365833 C42.985192,17.9682622 40.7477364,19.2960932 39.1248474,20.9095959 C36.7009912,23.4214088 36.5741188,25.7025261 38.6805327,25.9249124 C40.2040711,26.1363036 42.4779548,25.0831492 44.5127785,23.4775002 C45.8686788,22.4070676 46.4992638,21.5056159 46.9754039,20.6925816 C47.0467867,20.6025935 47.189552,20.4226173 47.3440441,20.3341999 L49.9215091,19.1042108 C50.0758789,19.0157935 50.2419981,19.018935 50.2537616,19.1104938 C50.4788478,19.5714295 51.0841072,19.7655425 51.8319215,19.7796792 C52.4966537,19.7922452 53.220614,19.6232642 54.0867445,19.2743071 C54.240945,19.1858897 54.25289,19.2774486 54.335963,19.2790193 L55.0913943,22.4898618 C55.1036104,22.5814206 55.0448522,22.7629676 54.8906556,22.8513849 C53.6225415,23.9233883 52.6994771,25.0932335 52.2888467,26.3640621 C51.9498468,27.5449025 52.324892,28.4652032 53.4347113,28.6687406 C55.5716018,29.0742446 59.1295937,27.1322045 61.1084347,24.6125379 C61.5324596,24.0726093 61.873233,23.53111 62.0475931,22.9864692 C62.0350542,22.8949104 62.2596416,22.716505 62.4135357,22.6280876 L75.1622529,15.2894479 C75.3155569,15.2010306 75.4814107,15.2041721 75.5643377,15.2057428 C75.9338147,15.4867023 76.3737587,15.6776737 76.9543867,15.688669 C77.6179689,15.701235 78.3390841,15.532254 79.2005304,15.1832969 C79.3536678,15.0948795 79.3663885,15.1864384 79.4493177,15.1880091 L79.9510484,18.758804 C79.9640538,18.8503628 79.893988,18.9403509 79.823922,19.030339 C78.2741136,20.3707359 77.1657773,21.9021042 77.2098695,23.3639042 C77.2590444,24.2779219 77.768728,24.9266875 78.8518169,24.9471072 C81.0180569,24.9879467 84.2326606,23.1311824 86.0462562,20.791492 C86.4647664,20.2515634 86.7304043,19.8000522 86.9129749,19.3469702 C86.9827355,19.2569822 87.1222564,19.077006 87.275102,18.9885886 L99.327708,12.0036183 C99.4799916,11.915201 99.5628059,11.9167717 99.6456204,11.9183425 C100.209485,12.3855612 101.14758,12.5859571 102.723336,12.068019 C104.215717,11.5485101 105.957436,10.4859312 107.174909,9.23081017 C110.216117,6.36689865 109.816834,3.62013339 106.456857,4.28663271 C105.09325,4.53460652 103.338422,5.50562658 101.939225,6.66604731 Z M40.9627557,21.6750523 C41.678771,20.7751714 42.9163382,20.0678326 43.747304,20.0835401 C44.578282,20.0992476 44.6712815,20.8317183 43.9565307,21.7315992 C43.3249656,22.6330509 42.0041456,23.3388189 41.171903,23.3231115 C40.3396726,23.307404 40.2467281,22.5749333 40.9627557,21.6750523 Z M53.8401683,15.433548 C54.5527945,14.533667 55.7857473,13.8263283 56.6143343,13.8420357 C57.4429335,13.8577432 57.5367413,14.590214 56.8253797,15.4900949 C56.3985569,16.0300235 55.8651268,16.3852636 55.5568966,16.5620983 C54.3355071,17.3609959 53.2447911,17.2490173 53.3881021,16.4297 C53.3646983,16.2465823 53.4838505,15.8834884 53.8401683,15.433548 Z M55.7781772,24.51201 C56.1326556,24.0620696 56.5827359,23.7052587 57.1159947,23.3500186 C58.1946145,22.7310971 59.2763882,22.7515169 59.2926373,23.4824169 C59.3175734,23.6655345 59.2134996,24.1201872 58.859671,24.5701277 C58.1520047,25.4700087 56.8357257,26.1757767 56.0022517,26.1600692 C55.1687899,26.1443617 55.0692111,25.411891 55.7781772,24.51201 Z M78.8630388,11.5240847 C79.5664377,10.6242038 80.7909159,9.916865 81.6181369,9.93257248 C82.4453702,9.94827996 82.545467,10.6807507 81.8433327,11.5806316 C81.492261,12.0305721 81.0457621,12.387383 80.6694351,12.6542058 C79.4573371,13.4531034 78.2973011,13.4311129 78.3502484,12.6102248 C78.3252656,12.4271071 78.4409935,12.0640133 78.8630388,11.5240847 Z M80.6809103,20.9640699 C81.1007295,20.4241413 81.6299785,20.0689012 81.9361297,19.8920665 C83.0773634,19.183157 84.2406374,19.2051475 84.2634646,19.9360475 C84.2900146,20.1191651 84.1769138,20.482259 83.7578744,21.0221876 C83.046112,21.8305097 81.7516944,22.6278365 80.9194447,22.612129 C80.0872072,22.5964216 79.9812017,21.8639508 80.6809103,20.9640699 Z M102.685131,8.41508979 C103.379524,7.51520885 104.595953,6.80787009 105.422116,6.82357757 C106.248292,6.83928505 106.354748,7.57175578 105.661619,8.47163672 C105.037793,9.28152956 103.751995,10.0788564 102.924554,10.0631489 C102.097126,10.0474415 101.990725,9.31497073 102.685131,8.41508979 Z" id="Shape" sketch:type="MSShapeGroup" transform="translate(73.215829, 16.454095) rotate(7.000000) translate(-73.215829, -16.454095) "></path>
            </g>
            <text sketch:type="MSTextLayer" font-family="Arial Rounded MT Bold" font-size="55" font-weight="normal" sketch:alignment="middle" fill="#636466">
                <tspan x="231.035156" y="149.581965">bitmapist</tspan>
            </text>
        </g>
    </g>
</svg>